PathFileType	4	(X/Y/Z)	C:\Users\chris\Documents\GitHub\baseballds\vids\pitch5_Sports2D\pitch5_Sports2D_m_person03.trc
DataRate	CameraRate	NumFrames	NumMarkers	Units	OrigDataRate	OrigDataStartFrame	OrigNumFrames
30	30	9	22	m	30	37	149
Frame#	Time	Hip			RHip			RKnee			RAnkle			RBigToe			RSmallToe			RHeel			LHip			LKnee			LAnkle			LBigToe			LSmallToe			LHeel			Neck			Head			Nose			RShoulder			RElbow			RWrist			LShoulder			LElbow			LWrist		
		X1	Y1	Z1	X2	Y2	Z2	X3	Y3	Z3	X4	Y4	Z4	X5	Y5	Z5	X6	Y6	Z6	X7	Y7	Z7	X8	Y8	Z8	X9	Y9	Z9	X10	Y10	Z10	X11	Y11	Z11	X12	Y12	Z12	X13	Y13	Z13	X14	Y14	Z14	X15	Y15	Z15	X16	Y16	Z16	X17	Y17	Z17	X18	Y18	Z18	X19	Y19	Z19	X20	Y20	Z20	X21	Y21	Z21	X22	Y22	Z22
37	1.2333333333333334	3.1352324266977005	1.3292260699492522	0.0	3.132807040468903	1.3283235106582771	0.0	3.136690169449625	1.3002172408564894	0.0	3.142105201339168	1.274009751695314	0.0	3.128344832745302	1.2668670478892783	0.0	3.12895734105066	1.269215576059685	0.0	3.1462195879495325	1.2705707486102957	0.0	3.1374575844446744	1.3286212913774897	0.0	3.140038299167743	1.2993389009959981	0.0	3.1450283162531187	1.272989072959781	0.0	3.132981203387732	1.2661552026910767	0.0	3.1350299414251577	1.2667615134098786	0.0	3.1497596030422033	1.2700142330011397	0.0	3.132140282927772	1.3694138702800258	0.0	3.1256146920125403	1.389113414881134	0.0	3.1234007482810755	1.3760173978652683	0.0	3.131339381088403	1.3624225778222252	0.0	3.1318820602876047	1.3460129327917716	0.0	3.1313438363377535	1.3275211975737204	0.0	3.1380097694772138	1.3635347594884828	0.0	3.140934966808393	1.3456171116463957	0.0	3.137097820703742	1.3264618174410607	0.0
38	1.2666666666666666	3.1362855321842136	1.328934840602296	0.0	3.1338112825103748	1.328045045058436	0.0	3.1376994550310324	1.2995684995507941	0.0	3.143186130011469	1.2729681765128564	0.0	3.1295695011350655	1.2656328481208685	0.0	3.1301132023481926	1.267935693381729	0.0	3.14712515682775	1.2693461065420286	0.0	3.1386103671709127	1.3282814503730174	0.0	3.1406711638474203	1.298701569224576	0.0	3.145701540443091	1.2720526615381673	0.0	3.1339047614120847	1.2651743830594586	0.0	3.136167984042681	1.2658586476109246	0.0	3.1505590161118504	1.2690884848883213	0.0	3.1330637374510717	1.3691870056635917	0.0	3.126386054287568	1.3892094346875299	0.0	3.124190964889945	1.3760486121573516	0.0	3.1322855648818515	1.3620599899130608	0.0	3.132382592336697	1.3456133110982285	0.0	3.132049494194439	1.3263094627694196	0.0	3.13914339264811	1.3629432382456768	0.0	3.141888661359677	1.3446888094625393	0.0	3.138186005079373	1.3252544001788396	0.0
39	1.3	3.1373148598248317	1.3285073525247262	0.0	3.1347519198534535	1.3276813866737274	0.0	3.138688360104201	1.2988831438957205	0.0	3.1441675424318496	1.2722901263343012	0.0	3.1307265246830887	1.264710652794756	0.0	3.1311629486497488	1.2667848657356704	0.0	3.148118160882467	1.2681859212083297	0.0	3.1395022494831535	1.3278782888980583	0.0	3.1416737999333195	1.2981574239804574	0.0	3.1465924006099195	1.2714335902684175	0.0	3.1351685408753056	1.2642820663436845	0.0	3.1374590215172975	1.2651075138463248	0.0	3.1516030981295606	1.2682520535032975	0.0	3.1343339724747112	1.3690535314355332	0.0	3.127615576439842	1.389006756373717	0.0	3.125417248467493	1.375885763310081	0.0	3.133270404688207	1.361733489999556	0.0	3.1336155150956206	1.3451551923787861	0.0	3.13397659627024	1.3250055842154915	0.0	3.14041364165856	1.3626693371279621	0.0	3.1432742772286657	1.3439802129085727	0.0	3.1395358100027067	1.324230112203433	0.0
40	1.3333333333333333	3.1383481909678093	1.3275588977373616	0.0	3.135755693775505	1.3267795040273567	0.0	3.139576722171091	1.297934385080936	0.0	3.1450588724633644	1.2716188703724656	0.0	3.131717943710247	1.2638861575062763	0.0	3.132112898598496	1.2657885139807195	0.0	3.1490472994189833	1.2672854174579702	0.0	3.14034292380157	1.326984183868002	0.0	3.1429629496805824	1.2973691134465086	0.0	3.1476611293012446	1.2707765147122208	0.0	3.1365610044778487	1.2633626899651782	0.0	3.138760188522903	1.2642680379735023	0.0	3.1527525392301268	1.2674916968672476	0.0	3.135713404386304	1.368325013651614	0.0	3.129034062690107	1.3881106495209514	0.0	3.1268496130725802	1.3750811431576575	0.0	3.134457101159084	1.3609410231399257	0.0	3.135278678409496	1.3441899728771347	0.0	3.1361545792846033	1.3236614141600422	0.0	3.1417316085064946	1.3621117887378253	0.0	3.1447270921927553	1.3430677975828744	0.0	3.1409096055122676	1.3231233112534737	0.0
41	1.3666666666666667	3.1392577028969364	1.3263159513605556	0.0	3.1367232127274804	1.325520818140532	0.0	3.14033329151824	1.2968253756646575	0.0	3.1457749913869106	1.2706963273448268	0.0	3.1325613841390294	1.262950925325036	0.0	3.1329527480163692	1.2650491293877804	0.0	3.1497779064597107	1.2666166933749872	0.0	3.1413290983053153	1.3256937158657744	0.0	3.144178496233317	1.2963176330371255	0.0	3.148630189965299	1.2699250086143252	0.0	3.137495677004467	1.2624315187325386	0.0	3.13980000860172	1.2632269384978019	0.0	3.153676203012779	1.2667258367523921	0.0	3.136885888131488	1.3671810587923787	0.0	3.1303077888937754	1.3870878144053767	0.0	3.1281464916611603	1.3740310311959316	0.0	3.1357635506980426	1.3597862402873468	0.0	3.1362401644009346	1.3428934155893861	0.0	3.137156102003749	1.322502832472923	0.0	3.1429288144333447	1.3610977514925842	0.0	3.1458134199101004	1.3418920183790333	0.0	3.1420706993028515	1.3219751985002224	0.0
42	1.4	3.139972924074608	1.324897558949579	0.0	3.137440961967535	1.3240907445091492	0.0	3.141067680279226	1.2954615270197958	0.0	3.146419603054249	1.269349870952221	0.0	3.133175197280815	1.2616901229292083	0.0	3.1335793896700075	1.264156870522995	0.0	3.150559857051077	1.2656168051083503	0.0	3.1422105481680065	1.3241580488056601	0.0	3.1451807174991155	1.2949426893789497	0.0	3.1495642464489277	1.2686989300454983	0.0	3.137881849400645	1.2612294185287982	0.0	3.140446550553464	1.2618380324265117	0.0	3.154445859036962	1.2655276792584995	0.0	3.1378621198070724	1.3658321800758042	0.0	3.1314038592037496	1.3859146099456845	0.0	3.129124142430595	1.372682124532834	0.0	3.1368464059769554	1.3583887795449154	0.0	3.1367442506871583	1.341376679975106	0.0	3.1374480189540526	1.321350921951553	0.0	3.1438284689140126	1.359746783349575	0.0	3.146597993577904	1.3405490037772358	0.0	3.1429341165446805	1.3207665145722054	0.0
43	1.4333333333333333	3.140705160963574	1.3232689884444193	0.0	3.138050495522984	1.3224752913311022	0.0	3.141895405210145	1.2938100501873973	0.0	3.147244154132302	1.26761619232329	0.0	3.133617688503344	1.2601007611980648	0.0	3.1340640224170646	1.262725606019485	0.0	3.151585672341003	1.2640097219028736	0.0	3.1428458487987525	1.3224734425825817	0.0	3.146023710769091	1.293204426817753	0.0	3.15061721929075	1.267001045435801	0.0	3.1382840450519542	1.2596146393631837	0.0	3.140891291824672	1.2601214691092641	0.0	3.155358340847356	1.2637827189952562	0.0	3.1387560845807045	1.3642833611664258	0.0	3.132462637962836	1.3842326810529881	0.0	3.1298197133642742	1.3708161772595453	0.0	3.137696432124342	1.3567798009815737	0.0	3.137852421293993	1.339671988260974	0.0	3.1380795016591136	1.320016221641191	0.0	3.1444007946048096	1.3581613146626672	0.0	3.147310110035195	1.339053699688327	0.0	3.143552876922493	1.3193645826247984	0.0
44	1.4666666666666666	3.1416767190078754	1.3218016098112197	0.0	3.1388363008898623	1.3210064210872483	0.0	3.1427070363039475	1.2923843514089952	0.0	3.148218708806093	1.2659208152316057	0.0	3.134109293603807	1.258499534193835	0.0	3.13461951980286	1.2610764055274677	0.0	3.152567783924628	1.262285957204869	0.0	3.1436769210262234	1.3210525438219534	0.0	3.1468166324398337	1.2915969110603498	0.0	3.1516464495241063	1.2652121964914986	0.0	3.139397154059892	1.2580295711444056	0.0	3.1415171096359313	1.2585301942141502	0.0	3.1564343363500798	1.2620598323551928	0.0	3.139621604819014	1.362858933187645	0.0	3.1334902657554453	1.3825572283665126	0.0	3.1304358747135335	1.3691038351364904	0.0	3.1384411151842055	1.3554053636095449	0.0	3.1390909773962052	1.3381665990635063	0.0	3.1385652952151	1.3189111784440728	0.0	3.1449646322021505	1.356686510287474	0.0	3.1480936789836726	1.3376031395036871	0.0	3.144200897331532	1.3179761492472801	0.0
45	1.5	3.1428048758911737	1.320853677027637	0.0	3.139783241385485	1.3200796901827885	0.0	3.143408112266493	1.2915489343660191	0.0	3.1491033401106994	1.264669388892609	0.0	3.1347377118307933	1.2572079785307364	0.0	3.135334279958362	1.259728798930927	0.0	3.153201950530656	1.2609437157367342	0.0	3.14501558034094	1.3202375598580052	0.0	3.1477676789655513	1.2906559161338134	0.0	3.1525273746260885	1.2638684998185676	0.0	3.141337514603182	1.2569312265773753	0.0	3.1425200502534696	1.2574737350559249	0.0	3.1574851796307475	1.2608483868865472	0.0	3.140585416668187	1.3619326838750367	0.0	3.1344875743061382	1.3816274733949727	0.0	3.1312943923428085	1.3682855932182592	0.0	3.1390872676632404	1.354712384017085	0.0	3.1393573271714637	1.3372522932380309	0.0	3.1382781612549375	1.3183731717025269	0.0	3.1459783854990824	1.3557729082256915	0.0	3.1490980138613582	1.3365269627528986	0.0	3.145226791848394	1.3169475376646869	0.0
